<!DOCTYPE svg PUBLIC "-//W3C//DTD SVG 20010904//EN" "http://www.w3.org/TR/2001/REC-SVG-20010904/DTD/svg10.dtd">
<svg version="1.0" xmlns="http://www.w3.org/2000/svg" width="104px" height="88px" viewBox="0 0 1040 880" preserveAspectRatio="xMidYMid meet">
<g id="layer101" fill="#001333" stroke="none">
 <path d="M472 859 c-289 -29 -456 -347 -321 -610 63 -124 221 -219 363 -219 162 0 303 92 378 245 27 56 29 67 27 170 -2 123 -15 164 -76 249 -42 58 -67 80 -135 118 -87 48 -135 58 -236 47z"/>
 </g>
<g id="layer102" fill="#1889ed" stroke="none">
 <path d="M472 859 c-289 -29 -456 -347 -321 -610 63 -124 221 -219 363 -219 162 0 303 92 378 245 27 56 29 67 27 170 -2 123 -15 164 -76 249 -42 58 -67 80 -135 118 -87 48 -135 58 -236 47z m101 -235 c56 -19 107 -72 126 -132 13 -40 13 -48 -7 -105 -36 -102 -105 -147 -203 -134 -84 11 -148 79 -163 173 -9 52 28 141 72 172 62 45 102 51 175 26z"/>
 </g>

</svg>